# xmcd
#
# Track frame offsets: 
#        150
#        13146
#        28010
#        39428
#        53068
#        66450
#        81413
#        108849
#        133000
#        157390
#        178801
#        198569
#        238274
#        254571
#        279427
#
# Disc length: 4093 seconds
#
# Revision: 0
# Processed by: cddbd v1.5.2PL0 Copyright (c) Steve Scherf et al.
# Submitted via: ExactAudioCopy v0.99pb5
#
DISCID=e30ffb0f
DTITLE=Jimi Hendrix - West Coast Seattle Boy The Jimi Hendrix Antholog
DTITLE=y {Single CD}
DYEAR=2010
DGENRE=Rock
TTITLE0=Fire
TTITLE1=Love Or Confusion
TTITLE2=Room Full Of Mirrors
TTITLE3=Shame, Shame, Shame
TTITLE4=Mr. Bad Luck
TTITLE5=May This Be Love
TTITLE6=Are You Experienced
TTITLE7=Tears Of Rage
TTITLE8=Hear My Freedom
TTITLE9=Hound Dog Blues
TTITLE10=Lonely Avenue
TTITLE11=Burning Desire
TTITLE12=In From The Storm
TTITLE13=Bolero
TTITLE14=Hey Baby (New Rising Sun)
EXTD=
EXTT0=
EXTT1=
EXTT2=
EXTT3=
EXTT4=
EXTT5=
EXTT6=
EXTT7=
EXTT8=
EXTT9=
EXTT10=
EXTT11=
EXTT12=
EXTT13=
EXTT14=
PLAYORDER=
